<?xml version="1.0" standalone="no"?>
<!DOCTYPE svg PUBLIC "-//W3C//DTD SVG 20010904//EN"
 "http://www.w3.org/TR/2001/REC-SVG-20010904/DTD/svg10.dtd">
<svg version="1.0" xmlns="http://www.w3.org/2000/svg"
 width="256.000000pt" height="256.000000pt" viewBox="0 0 256.000000 256.000000"
 preserveAspectRatio="xMidYMid meet">

<g transform="translate(0.000000,256.000000) scale(0.100000,-0.100000)"
fill="#000000" stroke="none">
<path d="M1101 2485 c-434 -77 -798 -371 -958 -775 -57 -144 -74 -229 -80
-410 -6 -177 7 -272 59 -418 79 -225 197 -395 377 -542 54 -44 91 -82 91 -93
0 -10 11 -29 25 -43 21 -21 34 -25 68 -23 31 3 70 -8 149 -39 172 -67 280 -85
478 -79 183 5 286 26 435 88 54 22 96 33 133 33 58 1 88 23 78 59 -3 12 15 33
62 71 103 82 241 234 301 331 61 97 111 214 142 332 29 108 37 350 15 488 -76
493 -486 916 -980 1010 -120 23 -295 27 -395 10z m296 -36 c132 -14 248 -49
378 -113 410 -202 675 -617 675 -1055 0 -341 -138 -644 -395 -871 -55 -48 -73
-59 -96 -56 -16 2 -29 -1 -29 -6 0 -6 10 -8 22 -5 20 6 20 5 4 -11 -15 -15
-18 -15 -26 -2 -14 22 -13 25 25 54 89 68 155 135 218 219 77 103 146 235 149
286 3 29 -2 37 -29 54 l-33 19 -43 -94 c-52 -111 -99 -188 -104 -171 -3 7 5
26 17 42 29 42 87 172 93 211 3 17 3 29 0 26 -3 -3 -12 2 -21 10 -11 11 -17
12 -22 4 -5 -8 -9 -7 -13 4 -4 11 -19 16 -46 16 -35 0 -41 -3 -47 -26 -5 -20
-9 -23 -16 -12 -7 10 -11 10 -15 1 -2 -7 -11 -13 -19 -13 -8 0 -14 -7 -14 -15
0 -8 -6 -15 -12 -15 -8 -1 -6 -6 5 -14 9 -7 17 -22 16 -32 0 -18 -1 -18 -8 0
-7 19 -8 18 -24 -4 -9 -13 -14 -27 -11 -32 3 -5 2 -8 -3 -7 -4 1 -16 -1 -26
-6 -30 -13 -32 4 -3 34 21 22 26 34 20 55 -9 36 18 73 69 97 23 10 57 19 75
19 46 0 139 -34 191 -71 24 -16 46 -28 49 -25 12 12 -39 181 -73 242 -20 35
-60 89 -90 119 -50 51 -55 54 -79 44 -50 -23 -106 44 -106 126 0 58 30 160 70
240 21 41 37 75 35 75 -1 0 -31 -9 -66 -21 -126 -41 -239 -119 -320 -222 -33
-41 -37 -51 -27 -67 18 -28 0 -70 -41 -97 -62 -42 -163 -27 -279 42 -31 18
-58 29 -60 24 -8 -20 39 -171 69 -224 18 -32 56 -83 85 -114 49 -53 55 -56 99
-56 40 0 51 -4 68 -27 24 -32 27 -103 7 -162 -16 -50 -28 -45 -27 12 2 54 -14
82 -47 82 -11 0 -28 5 -36 10 -12 8 -10 10 10 10 25 0 67 -23 82 -44 4 -6 8 1
8 17 0 15 -5 27 -11 27 -6 0 -9 7 -5 15 4 11 -2 15 -22 16 -50 1 -65 7 -101
42 -20 19 -42 32 -48 30 -7 -3 -13 1 -13 7 0 7 -7 10 -16 6 -14 -5 -15 -4 -5
8 18 21 -26 81 -46 65 -10 -9 -13 -6 -13 15 0 14 -4 26 -9 26 -6 0 -9 12 -8
28 1 16 -3 26 -9 25 -7 -1 -14 7 -17 17 -3 11 -2 18 2 15 4 -2 2 26 -5 63 -7
37 -13 84 -14 105 l0 38 43 -26 c133 -81 214 -107 268 -84 l31 12 -29 23 c-32
26 -16 31 27 9 40 -21 48 -1 13 31 l-28 25 28 -17 c16 -10 27 -12 27 -5 0 6
-5 11 -11 11 -6 0 -8 7 -5 17 9 22 -31 64 -53 55 -14 -5 -14 -3 -3 11 13 15
16 14 40 -8 32 -30 46 -32 37 -5 -5 15 1 22 30 34 20 9 39 24 42 35 3 11 13
21 24 24 13 3 19 14 19 32 0 21 4 25 18 21 10 -4 27 1 38 9 12 9 14 14 6 15
-7 0 -10 5 -6 11 5 8 9 8 14 -1 11 -18 30 -3 24 18 -5 14 -4 14 4 3 9 -12 13
-13 27 -1 45 38 43 90 -6 116 -40 20 -41 19 -160 -151 -68 -99 -98 -134 -109
-129 -36 15 -46 14 -58 -7 -11 -18 -12 -26 -1 -45 21 -41 3 -40 -60 2 -1 2 8
18 22 36 13 18 32 49 42 68 10 19 33 48 51 63 61 51 80 177 39 257 -8 16 -15
42 -15 59 0 16 -8 56 -18 88 l-19 59 24 17 c46 35 23 96 -55 146 -79 50 -147
65 -401 88 -115 10 -247 -36 -336 -118 -80 -74 -165 -247 -165 -335 0 -18 -9
-48 -19 -66 -27 -47 -34 -101 -21 -164 12 -58 54 -118 91 -129 11 -4 26 -23
35 -43 17 -42 52 -82 107 -123 l38 -27 -46 -32 c-25 -17 -52 -45 -62 -63 -9
-18 -32 -55 -51 -84 l-34 -52 -157 6 c-140 5 -158 4 -174 -11 -24 -24 -21 -48
13 -117 l31 -60 -21 -26 c-22 -28 -20 -73 6 -124 7 -14 9 -31 5 -37 -10 -17
-38 43 -46 102 -5 34 -3 52 8 69 14 21 12 28 -14 82 -15 33 -28 68 -29 77 0
32 43 69 86 75 l42 5 8 72 9 71 3 -72 c2 -40 7 -73 12 -73 13 0 13 226 0 250
-13 24 14 50 33 31 9 -9 9 -16 -1 -31 -14 -22 -15 -63 -5 -176 9 -106 21 -69
22 66 1 103 1 104 33 137 26 27 29 35 18 47 -7 9 -10 23 -6 31 6 17 32 20 41
4 9 -14 -18 -69 -49 -98 -23 -22 -26 -32 -26 -99 0 -79 8 -87 43 -40 16 21 17
28 6 46 -10 16 -10 23 0 36 7 8 19 12 27 9 16 -6 19 -39 4 -48 -6 -4 -8 -10
-5 -15 3 -5 -11 -27 -30 -49 -26 -28 -35 -47 -33 -65 l3 -25 79 49 c44 26 83
58 88 70 5 13 1 50 -9 93 -9 40 -16 79 -16 87 0 8 -5 21 -11 29 -9 12 -8 13 7
8 9 -3 17 -2 17 3 0 6 -6 10 -14 10 -21 0 -82 73 -96 115 -7 20 -13 71 -14
114 l-1 76 -35 6 c-28 5 -30 7 -9 8 14 0 41 9 60 19 l34 17 -60 5 c-33 3 -66
1 -74 -5 -33 -24 -116 -147 -162 -240 -69 -141 -90 -230 -96 -400 -7 -199 24
-335 116 -500 15 -27 31 -59 34 -70 l7 -20 -16 20 c-58 73 -136 279 -155 407
-16 110 -6 292 21 393 55 207 204 433 370 560 34 26 67 62 80 87 12 24 31 58
42 76 l21 34 -39 -20 c-128 -66 -310 -232 -405 -370 -147 -212 -217 -478 -191
-728 15 -150 43 -249 104 -373 67 -136 64 -130 40 -101 -16 19 -24 22 -30 12
-6 -9 -12 -5 -21 15 -10 23 -10 26 0 15 22 -20 28 -14 18 18 -6 17 -18 30 -27
30 -14 0 -14 -2 -3 -9 7 -5 9 -11 4 -14 -14 -9 -57 88 -48 104 5 7 4 10 -3 5
-13 -8 -54 116 -73 224 -22 125 -16 307 14 438 52 224 142 385 317 563 166
169 322 265 528 324 143 41 266 51 419 34z m-143 -64 c82 -17 164 -64 213
-120 39 -44 93 -133 93 -152 0 -25 -16 -13 -28 20 -6 18 -19 42 -27 52 -15 19
-16 19 -5 -5 l11 -25 -18 25 c-36 50 -88 102 -132 133 -106 73 -287 75 -425 5
-21 -11 -35 -15 -31 -9 11 19 102 61 163 75 74 19 103 19 186 1z m226 -46 c9
-5 2 -6 -20 -2 -19 3 -42 10 -50 15 -20 12 49 -1 70 -13z m-517 -55 c-29 -14
-72 -48 -98 -76 -25 -27 -45 -45 -45 -39 0 34 141 142 184 141 6 -1 -12 -12
-41 -26z m672 -49 c0 -16 -6 -30 -13 -33 -11 -3 -12 0 -3 16 8 16 6 26 -12 48
l-22 29 25 -16 c17 -11 25 -26 25 -44z m-685 -24 c0 -21 -44 -61 -66 -61 -18
0 -17 4 1 40 21 41 65 55 65 21z m679 -159 c16 -73 -10 -44 -29 33 -10 39 -21
79 -24 90 -4 11 5 -2 18 -30 14 -27 29 -69 35 -93z m-850 47 c-15 -45 -31
-107 -35 -138 -10 -83 -23 -98 -24 -25 0 65 25 153 61 210 11 19 22 34 23 34
2 0 -10 -37 -25 -81z m76 11 c-3 -5 -11 -10 -16 -10 -6 0 -7 5 -4 10 3 6 11
10 16 10 6 0 7 -4 4 -10z m729 -46 c3 -9 6 -25 6 -36 0 -12 17 -35 38 -53 l37
-33 0 -87 c0 -85 -1 -87 -33 -116 -32 -29 -62 -38 -62 -19 0 6 8 10 18 10 32
0 61 42 67 96 4 44 4 46 -5 17 -20 -61 -55 -51 -62 18 -3 35 -1 40 19 45 13 4
20 10 18 15 -3 4 -13 5 -22 2 -11 -5 -14 -3 -9 6 5 7 17 11 27 8 23 -6 26 8 3
17 -40 15 -82 -58 -72 -125 3 -15 1 -26 -4 -23 -4 3 -8 31 -9 62 -1 57 -1 57
-11 20 -14 -53 -32 -49 -23 5 7 44 29 87 44 87 5 0 4 18 -1 40 -6 22 -14 37
-18 35 -5 -3 -11 -1 -14 4 -6 9 13 18 45 20 9 0 20 -6 23 -15z m-74 -82 c0 -5
-9 -17 -20 -27 -11 -10 -20 -26 -20 -37 0 -10 -5 -18 -11 -18 -12 0 -4 34 17
68 14 22 34 30 34 14z m-171 -48 c87 -73 46 -223 -70 -254 -37 -10 -61 -9
-160 11 -127 24 -112 26 -216 -32 -33 -19 -47 -22 -70 -14 -57 20 -108 189
-68 229 10 10 24 14 34 11 9 -4 43 -13 76 -22 97 -25 150 -14 315 66 80 38
118 39 159 5z m-642 -181 c-5 -7 -13 -13 -18 -13 -11 0 -12 114 -2 124 12 11
30 -97 20 -111z m1218 77 c11 -13 15 -25 10 -37 -8 -17 -8 -17 -13 2 -6 30
-19 40 -35 27 -18 -15 -30 -3 -16 15 16 18 33 16 54 -7z m-15 -20 c0 -5 -2
-10 -4 -10 -3 0 -8 5 -11 10 -3 6 -1 10 4 10 6 0 11 -4 11 -10z m-52 -22 c-2
-6 -10 -14 -16 -16 -7 -2 -10 2 -6 12 7 18 28 22 22 4z m-44 -62 c-3 -9 -10
-16 -15 -16 -6 0 -5 9 1 21 13 24 24 20 14 -5z m-279 -22 c-38 -58 -102 -117
-157 -145 -62 -31 -68 -33 -68 -21 0 4 20 15 44 25 55 23 117 76 157 134 32
47 55 53 24 7z m497 21 c-27 -20 -75 -88 -125 -180 -21 -38 -36 -63 -34 -55
14 43 42 108 59 132 28 41 21 43 -23 4 -23 -19 -47 -32 -54 -30 -7 3 -32 -17
-56 -45 -35 -40 -43 -57 -41 -81 5 -43 -39 -113 -82 -134 -19 -9 -51 -16 -73
-15 l-38 1 39 9 c89 21 143 82 130 149 -6 28 0 37 77 113 56 55 106 94 148
115 69 34 113 44 73 17z m-1492 -19 c0 -2 -8 -10 -17 -17 -16 -13 -17 -12 -4
4 13 16 21 21 21 13z m1478 -78 c-47 -142 -34 -259 35 -294 17 -9 42 -14 57
-10 24 4 36 -3 83 -53 59 -62 96 -125 121 -210 9 -30 16 -57 16 -59 0 -3 -24
20 -53 51 -54 56 -150 112 -235 137 -36 11 -43 18 -52 51 -11 38 -69 99 -95
99 -7 0 -16 4 -19 8 -9 15 25 125 60 197 30 60 98 165 107 165 2 0 -9 -37 -25
-82z m-249 31 c-19 -12 -24 -2 -8 17 9 11 14 13 17 4 3 -7 -2 -16 -9 -21z
m-787 -16 c-5 -21 -7 -23 -10 -10 -2 12 -9 16 -20 13 -13 -5 -12 -2 2 9 28 21
34 19 28 -12z m583 0 c-33 -52 -86 -113 -108 -125 -15 -8 -11 1 15 30 20 23
49 59 64 82 15 22 31 40 36 40 6 0 2 -12 -7 -27z m-734 -64 c13 -29 41 -67 68
-91 25 -22 37 -36 25 -30 -49 25 -111 103 -129 161 -13 42 14 13 36 -40z m906
36 c-4 -8 -11 -15 -17 -15 -7 0 -7 6 0 21 13 23 26 19 17 -6z m-463 -76 c-3
-5 -18 -9 -35 -9 -19 0 -29 -5 -29 -15 0 -8 -4 -15 -10 -15 -14 0 -12 26 3 38
25 20 84 21 71 1z m297 -72 c-5 -5 -25 2 -45 15 -47 32 -35 44 15 15 21 -12
34 -26 30 -30z m-161 -123 c56 -57 135 -105 222 -135 58 -20 67 -27 72 -52 8
-41 41 -82 76 -97 16 -7 30 -19 30 -27 0 -34 -85 -193 -103 -193 -5 0 1 13 12
29 28 39 71 132 71 154 0 9 -6 17 -14 17 -24 0 -86 65 -92 98 -5 26 -14 33
-51 46 -38 13 -49 13 -70 2 l-26 -13 46 -34 c26 -19 58 -42 73 -53 52 -37 71
-146 39 -223 -21 -50 -27 -37 -14 30 14 70 6 117 -28 158 -23 27 -31 30 -67
27 -38 -4 -44 -1 -92 49 -29 29 -67 84 -87 121 -36 69 -61 142 -48 142 4 0 27
-21 51 -46z m-460 28 c0 -4 -14 -16 -31 -26 -17 -10 -34 -28 -39 -39 l-9 -22
0 22 c-1 15 11 31 36 48 42 28 43 28 43 17z m540 -35 c11 -4 9 -6 -5 -6 -11 0
-31 9 -45 20 l-25 20 30 -14 c17 -8 37 -17 45 -20z m-470 -42 c0 -5 -5 -3 -10
5 -5 8 -10 20 -10 25 0 6 5 3 10 -5 5 -8 10 -19 10 -25z m269 16 c-61 -82
-150 -183 -123 -138 16 24 126 157 131 157 3 0 -1 -8 -8 -19z m619 -11 c120
-73 43 -256 -92 -219 -50 14 -86 61 -86 113 0 48 19 80 64 107 40 24 73 24
114 -1z m-1083 -69 l-16 -31 31 0 c16 0 30 -2 30 -4 0 -2 3 -12 7 -21 5 -15 3
-16 -15 -6 -11 6 -37 11 -56 11 l-36 0 32 48 c35 52 50 53 23 3z m132 -3 c-3
-8 -6 -5 -6 6 -1 11 2 17 5 13 3 -3 4 -12 1 -19z m1117 -72 c72 -27 102 -45
164 -95 53 -44 54 -54 2 -29 -62 31 -157 35 -207 9 -55 -28 -83 -65 -83 -110
0 -29 -7 -44 -32 -67 -43 -40 -95 -61 -111 -45 -6 6 -21 11 -34 11 -13 0 -23
2 -23 5 0 2 15 33 34 67 19 35 39 80 46 100 10 32 18 39 52 49 50 13 96 57
104 98 4 17 10 31 15 31 5 0 38 -11 73 -24z m-1239 -5 c27 -6 36 -20 98 -160
38 -84 66 -156 62 -159 -9 -10 -20 8 -86 155 l-64 141 -50 6 c-72 8 -345 12
-333 5 5 -4 3 -9 -6 -12 -9 -4 -16 -11 -16 -17 0 -17 31 -24 41 -9 8 12 11 11
20 -4 6 -9 16 -14 22 -11 7 4 2 -4 -11 -18 -12 -13 -19 -29 -15 -33 5 -5 -1
-3 -11 5 -19 15 -19 14 -2 -19 10 -18 13 -30 7 -26 -22 13 -83 146 -72 158 10
13 361 12 416 -2z m145 -51 c0 -15 -9 -35 -20 -45 -15 -14 -20 -15 -20 -4 0 8
-3 32 -5 54 -5 34 -4 37 5 16 8 -17 14 -21 21 -14 8 8 7 18 -1 34 -11 23 -10
23 4 5 9 -11 16 -32 16 -46z m430 30 c0 -3 -10 -11 -22 -19 -13 -7 -20 -10
-16 -6 4 5 3 14 -2 21 -8 9 -4 12 15 10 14 0 25 -3 25 -6z m-717 -7 c-34 -2
-93 -2 -130 0 -37 2 -9 3 62 3 72 0 102 -1 68 -3z m317 -27 c0 -8 -4 -18 -10
-21 -5 -3 -10 3 -10 14 0 12 5 21 10 21 6 0 10 -6 10 -14z m-207 -16 c-7 -28
-23 -36 -23 -11 0 10 6 22 13 24 6 3 13 6 14 6 0 1 -1 -8 -4 -19z m362 -41
c81 -45 78 -56 -3 -15 l-70 35 -50 -14 c-38 -12 -51 -21 -54 -37 -4 -29 -25
-34 -33 -8 -9 27 -6 29 57 51 73 25 90 24 153 -12z m-132 -81 c-5 -26 -23 -40
-23 -18 0 10 23 51 26 47 1 -1 0 -14 -3 -29z m267 -12 c-1 -20 -2 -20 -15 4
-19 33 -19 46 0 30 8 -7 15 -22 15 -34z m175 -6 c3 -5 -3 -10 -15 -10 -12 0
-18 5 -15 10 3 6 10 10 15 10 5 0 12 -4 15 -10z m-407 -31 c-6 -16 -13 -28
-15 -25 -8 8 6 56 17 56 5 0 5 -13 -2 -31z m45 -19 c-3 -11 -10 -23 -16 -27
-5 -3 -8 -2 -5 3 3 5 8 17 11 27 9 24 16 22 10 -3z m-365 -127 c-3 -26 -7 -28
-55 -31 l-53 -3 0 -100 0 -99 -30 0 -30 0 0 99 0 100 -47 3 c-44 3 -48 5 -51
31 l-3 27 136 0 136 0 -3 -27z m270 7 c30 -28 31 -101 1 -131 l-21 -21 26 -39
c14 -21 26 -41 26 -44 0 -3 -15 -5 -33 -5 -27 0 -36 7 -57 40 -23 38 -28 40
-72 40 l-48 0 0 -40 c0 -38 -2 -40 -30 -40 l-30 0 0 130 0 130 108 0 c95 0
111 -2 130 -20z m127 -110 l0 -125 -27 -3 -28 -3 0 131 0 131 28 -3 27 -3 0
-125z m292 5 c34 -66 62 -123 63 -127 0 -5 -14 -8 -30 -8 -23 0 -33 6 -42 25
-11 24 -16 25 -90 25 -74 0 -79 -1 -90 -25 -9 -20 -19 -25 -45 -25 -19 0 -33
3 -31 8 22 48 105 203 120 225 16 22 27 27 52 25 29 -3 35 -11 93 -123z m347
109 c12 -32 -13 -43 -107 -46 l-92 -3 -3 -44 c-6 -85 -1 -91 78 -91 68 0 70 1
70 25 0 23 -3 25 -51 25 -47 0 -50 2 -47 23 3 21 8 22 78 22 l75 0 3 -59 c4
-85 -8 -96 -115 -96 -55 0 -94 5 -113 15 -45 23 -56 84 -34 192 7 38 49 52
155 53 81 0 98 -3 103 -16z m291 -14 c0 -24 -2 -25 -90 -30 -75 -4 -90 -8 -93
-22 -3 -16 6 -18 86 -18 73 0 91 -3 96 -16 11 -29 -4 -34 -95 -34 -88 0 -90
-1 -87 -22 3 -21 9 -23 93 -28 89 -5 90 -5 93 -32 l3 -28 -100 0 c-90 0 -102
2 -125 23 -26 23 -29 39 -27 135 1 42 6 58 26 78 24 23 30 25 122 22 97 -3 98
-3 98 -28z m-1574 -118 c38 -53 14 -39 -32 20 -17 21 -24 36 -16 32 8 -3 29
-26 48 -52z m-102 -66 c-3 -3 -11 5 -18 17 -13 21 -12 21 5 5 10 -10 16 -20
13 -22z m330 -96 c10 -5 42 -46 72 -92 l54 -82 5 89 c5 88 6 90 30 90 l25 0 0
-125 0 -125 -39 0 c-38 0 -42 3 -93 75 -28 41 -59 84 -67 95 -13 18 -14 11 -9
-70 4 -77 2 -93 -12 -105 -12 -10 -21 -11 -33 -3 -15 9 -16 27 -13 129 2 73 8
122 15 126 15 11 44 10 65 -2z m296 -125 l0 -130 -25 0 -25 0 -3 119 c-1 66 0
126 3 134 3 7 15 12 27 10 23 -3 23 -6 23 -133z m152 113 c11 -13 42 -56 69
-97 l49 -74 5 94 c5 92 5 94 30 94 l25 0 3 -116 c3 -127 -5 -149 -52 -149 -28
0 -50 24 -115 123 l-50 78 -3 -98 c-3 -97 -3 -98 -28 -98 l-25 0 -3 119 c-2
78 1 123 9 132 18 21 63 17 86 -8z m411 -88 c2 -100 1 -107 -21 -128 -26 -24
-106 -39 -151 -28 -19 5 -26 13 -26 31 0 24 3 25 58 25 32 0 63 5 70 12 7 7
12 45 12 98 0 48 3 90 7 94 4 4 16 6 28 4 18 -3 20 -11 23 -108z m209 102 c6
-4 39 -61 72 -127 45 -90 57 -121 47 -127 -21 -12 -53 2 -65 28 -10 22 -16 24
-83 24 -71 0 -74 -1 -90 -30 -16 -28 -54 -41 -71 -24 -7 7 97 220 121 247 16
18 48 22 69 9z m103 -17 c-7 -8 -17 -15 -22 -15 -6 0 -5 7 2 15 7 8 17 15 22
15 6 0 5 -7 -2 -15z"/>
<path d="M1676 2293 c13 -20 24 -46 24 -58 0 -17 16 -32 65 -60 336 -197 533
-528 535 -897 0 -60 6 -92 29 -150 16 -40 31 -80 33 -88 10 -32 31 140 30 245
-3 347 -169 671 -455 886 -70 53 -193 123 -262 149 l-24 9 25 -36z"/>
<path d="M1670 2165 c-10 -12 -10 -21 -1 -41 6 -14 14 -23 19 -21 4 3 16 1 27
-4 17 -6 16 -8 -9 -8 -21 -1 -27 -5 -22 -17 3 -9 6 -24 6 -35 0 -30 60 -26 90
6 16 17 33 25 54 24 29 -2 29 -2 5 -6 -15 -2 -39 -17 -55 -34 -18 -18 -38 -29
-56 -29 -18 0 -28 -5 -28 -14 0 -10 16 -16 53 -20 107 -12 112 -13 62 -15 -63
-2 -95 -10 -95 -25 0 -7 31 -12 88 -14 96 -4 137 -21 162 -67 15 -27 15 -27
90 -10 8 2 19 4 23 4 26 3 -113 156 -204 227 -60 46 -171 114 -187 114 -5 0
-15 -7 -22 -15z m65 -14 c3 -6 -9 -9 -29 -8 -19 1 -32 5 -29 10 6 10 51 9 58
-2z"/>
<path d="M605 2013 l-59 -58 53 -3 c29 -2 54 -2 56 0 1 2 6 22 10 46 6 38 5
41 -12 36 -13 -4 -11 0 7 15 14 11 20 21 14 21 -6 0 -37 -26 -69 -57z"/>
<path d="M1778 1893 c-44 -7 -32 -23 13 -19 45 4 81 27 39 25 -14 -1 -37 -4
-52 -6z"/>
<path d="M1754 1833 c10 -11 37 -12 30 -2 -3 5 -12 9 -21 9 -9 0 -13 -3 -9 -7z"/>
<path d="M2124 1759 c-4 -13 -7 -27 -6 -31 1 -5 -3 -8 -9 -8 -5 0 -8 -4 -5 -9
4 -5 0 -11 -6 -14 -9 -3 -7 -11 7 -27 18 -21 18 -23 2 -17 -14 5 -21 0 -29
-23 -5 -17 -15 -27 -21 -23 -6 4 -8 -2 -5 -15 4 -14 2 -20 -4 -16 -7 4 -7 -20
-2 -72 4 -44 8 -87 9 -96 2 -31 11 -28 13 5 1 18 5 44 8 59 3 14 0 29 -5 33
-6 3 -11 15 -11 26 0 13 6 19 23 18 16 -1 18 -2 5 -6 -20 -5 -23 -18 -8 -28 6
-3 10 -37 10 -76 0 -66 1 -69 19 -57 17 10 23 9 40 -6 13 -12 21 -14 21 -7 0
7 5 9 10 6 6 -3 10 -13 10 -22 0 -18 76 -104 84 -95 11 10 6 99 -9 179 -18 95
-52 199 -88 268 -41 79 -44 81 -53 54z"/>
<path d="M610 1560 c0 -5 5 -10 10 -10 6 0 10 5 10 10 0 6 -4 10 -10 10 -5 0
-10 -4 -10 -10z"/>
<path d="M760 1506 c0 -2 8 -10 18 -17 15 -13 16 -12 3 4 -13 16 -21 21 -21
13z"/>
<path d="M520 1486 c0 -9 5 -16 10 -16 6 0 10 4 10 9 0 6 -4 13 -10 16 -5 3
-10 -1 -10 -9z"/>
<path d="M630 1410 c0 -5 5 -10 11 -10 5 0 7 5 4 10 -3 6 -8 10 -11 10 -2 0
-4 -4 -4 -10z"/>
<path d="M1965 380 c-3 -5 1 -10 9 -10 9 0 16 5 16 10 0 6 -4 10 -9 10 -6 0
-13 -4 -16 -10z"/>
<path d="M1460 2236 c0 -2 8 -10 18 -17 15 -13 16 -12 3 4 -13 16 -21 21 -21
13z"/>
<path d="M1205 1898 c-11 -6 -39 -29 -63 -50 -30 -28 -50 -38 -63 -35 -24 6
-21 -12 4 -27 12 -8 22 -7 37 2 23 14 30 15 29 5 -6 -40 20 -73 56 -73 42 0
61 66 28 102 -21 24 -8 38 44 48 l38 7 -37 17 c-44 19 -47 19 -73 4z m25 -92
c0 -21 -21 -31 -30 -15 -5 7 -6 17 -4 21 9 14 34 9 34 -6z"/>
<path d="M779 1824 c-16 -18 -19 -25 -9 -24 8 1 25 2 38 1 21 -1 23 -5 17 -30
-4 -19 0 -41 10 -60 25 -50 75 -36 75 20 0 15 5 31 10 34 13 8 13 25 0 25 -5
0 -31 14 -57 30 -26 17 -50 30 -53 30 -4 0 -17 -12 -31 -26z m113 -69 c0 -5
-5 -11 -11 -13 -6 -2 -11 4 -11 13 0 9 5 15 11 13 6 -2 11 -8 11 -13z"/>
<path d="M1817 1274 c-4 -4 -7 -18 -7 -31 0 -18 -5 -23 -25 -23 -20 0 -25 -5
-25 -25 0 -20 5 -25 25 -25 20 0 25 -5 25 -25 0 -21 5 -25 28 -25 23 0 28 4
28 23 -1 17 5 23 27 25 21 3 27 9 27 27 0 18 -6 24 -27 27 -22 2 -28 8 -28 28
0 18 -6 26 -20 28 -12 2 -24 0 -28 -4z"/>
<path d="M1987 1115 c-12 -24 -13 -34 -4 -32 6 1 11 -3 10 -10 -2 -8 7 -8 32
3 19 8 54 15 77 15 l43 2 -35 7 c-21 4 -27 8 -15 9 15 2 10 7 -20 22 -56 26
-69 24 -88 -16z"/>
<path d="M590 565 c0 -8 7 -15 15 -15 9 0 12 6 9 15 -4 8 -10 15 -15 15 -5 0
-9 -7 -9 -15z"/>
<path d="M830 700 l0 -31 68 3 c65 3 67 4 70 31 l3 27 -70 0 -71 0 0 -30z"/>
<path d="M966 574 c8 -12 24 -24 34 -27 20 -5 20 -5 1 22 -25 35 -57 40 -35 5z
m22 -9 c-3 -3 -9 2 -12 12 -6 14 -5 15 5 6 7 -7 10 -15 7 -18z"/>
<path d="M796 565 c-3 -8 -1 -15 4 -15 6 0 10 7 10 15 0 8 -2 15 -4 15 -2 0
-6 -7 -10 -15z"/>
<path d="M1092 563 c5 -25 28 -28 28 -4 0 12 -6 21 -16 21 -9 0 -14 -7 -12
-17z"/>
<path d="M1302 685 c-12 -25 -22 -48 -22 -50 0 -3 22 -5 49 -5 l50 0 -22 50
c-12 27 -24 50 -28 50 -3 0 -15 -20 -27 -45z"/>
<path d="M1205 572 c3 -3 -3 -11 -13 -18 -15 -12 -15 -13 5 -8 25 7 38 31 17
31 -8 0 -12 -3 -9 -5z"/>
<path d="M1437 574 c-9 -10 4 -34 19 -34 8 0 14 4 14 9 0 12 -26 32 -33 25z"/>
<path d="M1530 593 c0 -5 8 -18 19 -27 15 -14 35 -16 111 -14 52 2 95 8 97 13
2 6 -35 9 -99 8 -86 -2 -105 0 -115 14 -7 9 -13 12 -13 6z"/>
<path d="M1840 582 c0 -20 25 -27 118 -32 67 -4 92 -2 92 7 0 8 -28 13 -84 15
-46 2 -82 0 -79 -4 8 -14 -10 -8 -29 9 -10 9 -18 11 -18 5z"/>
<path d="M650 260 c0 -11 7 -20 15 -20 8 0 15 9 15 20 0 11 -7 20 -15 20 -8 0
-15 -9 -15 -20z"/>
<path d="M880 274 c0 -6 -13 -10 -30 -9 -24 1 -28 -1 -19 -12 12 -14 55 -18
63 -5 2 4 1 14 -5 22 -5 8 -9 10 -9 4z"/>
<path d="M980 268 c0 -16 5 -28 10 -28 13 0 13 20 0 40 -8 12 -10 9 -10 -12z"/>
<path d="M1092 278 c-17 -17 -15 -38 3 -38 9 0 15 9 15 25 0 29 -1 30 -18 13z"/>
<path d="M1253 270 c10 -17 23 -25 43 -25 23 0 30 5 32 25 2 18 0 21 -7 11 -5
-8 -18 -12 -30 -8 -12 3 -19 1 -15 -4 10 -16 -8 -10 -23 9 -13 15 -13 14 0 -8z"/>
<path d="M1514 273 c-12 -9 -37 -13 -67 -11 -33 2 -47 -1 -47 -9 0 -30 147 -9
157 23 5 15 -21 13 -43 -3z m26 -3 c0 -5 -5 -10 -11 -10 -5 0 -7 5 -4 10 3 6
8 10 11 10 2 0 4 -4 4 -10z"/>
<path d="M1732 385 c-12 -25 -22 -48 -22 -50 0 -3 20 -5 45 -5 25 0 45 3 45 8
-1 4 -11 26 -23 50 l-23 43 -22 -46z"/>
<path d="M1622 260 c-10 -17 -10 -20 7 -20 18 0 37 27 26 38 -3 3 -5 -1 -5 -9
0 -10 -2 -11 -8 -2 -6 9 -11 7 -20 -7z"/>
<path d="M1860 263 c6 -13 18 -23 27 -23 9 0 14 2 12 4 -2 2 -7 4 -11 3 -4 -1
-14 7 -23 18 -16 20 -16 19 -5 -2z"/>
</g>
</svg>
